<mxfile host="Electron" modified="2024-07-20T21:27:46.411Z" agent="Mozilla/5.0 (Windows NT 10.0; Win64; x64) AppleWebKit/537.36 (KHTML, like Gecko) draw.io/24.5.3 Chrome/124.0.6367.207 Electron/30.0.6 Safari/537.36" etag="T257vNQ0Mz35O6qn-tRP" version="24.5.3" type="device">
  <diagram name="Page-1" id="mSlq2EppIEN7uW6yPGun">
    <mxGraphModel dx="1925" dy="524" grid="1" gridSize="10" guides="1" tooltips="1" connect="1" arrows="1" fold="1" page="1" pageScale="1" pageWidth="850" pageHeight="1100" math="0" shadow="0">
      <root>
        <mxCell id="0" />
        <mxCell id="1" parent="0" />
        <mxCell id="pM1Eg_i1Femi7RNcpdk1-33" value="Question" style="swimlane;fontStyle=1;align=center;verticalAlign=top;childLayout=stackLayout;horizontal=1;startSize=26;horizontalStack=0;resizeParent=1;resizeParentMax=0;resizeLast=0;collapsible=1;marginBottom=0;whiteSpace=wrap;html=1;" vertex="1" parent="1">
          <mxGeometry x="110" y="300" width="170" height="130" as="geometry" />
        </mxCell>
        <mxCell id="pM1Eg_i1Femi7RNcpdk1-34" value="+ header: string&lt;div&gt;+ body: string&lt;/div&gt;&lt;div&gt;+ mark: int&lt;/div&gt;&lt;div&gt;+ Answers: Answer[]&lt;/div&gt;" style="text;strokeColor=none;fillColor=none;align=left;verticalAlign=top;spacingLeft=4;spacingRight=4;overflow=hidden;rotatable=0;points=[[0,0.5],[1,0.5]];portConstraint=eastwest;whiteSpace=wrap;html=1;" vertex="1" parent="pM1Eg_i1Femi7RNcpdk1-33">
          <mxGeometry y="26" width="170" height="64" as="geometry" />
        </mxCell>
        <mxCell id="pM1Eg_i1Femi7RNcpdk1-35" value="" style="line;strokeWidth=1;fillColor=none;align=left;verticalAlign=middle;spacingTop=-1;spacingLeft=3;spacingRight=3;rotatable=0;labelPosition=right;points=[];portConstraint=eastwest;strokeColor=inherit;" vertex="1" parent="pM1Eg_i1Femi7RNcpdk1-33">
          <mxGeometry y="90" width="170" height="8" as="geometry" />
        </mxCell>
        <mxCell id="pM1Eg_i1Femi7RNcpdk1-36" value="+ DisplayQuestion(): void" style="text;strokeColor=none;fillColor=none;align=left;verticalAlign=top;spacingLeft=4;spacingRight=4;overflow=hidden;rotatable=0;points=[[0,0.5],[1,0.5]];portConstraint=eastwest;whiteSpace=wrap;html=1;" vertex="1" parent="pM1Eg_i1Femi7RNcpdk1-33">
          <mxGeometry y="98" width="170" height="32" as="geometry" />
        </mxCell>
        <mxCell id="pM1Eg_i1Femi7RNcpdk1-37" value="MCQQuestion" style="swimlane;fontStyle=1;align=center;verticalAlign=top;childLayout=stackLayout;horizontal=1;startSize=26;horizontalStack=0;resizeParent=1;resizeParentMax=0;resizeLast=0;collapsible=1;marginBottom=0;whiteSpace=wrap;html=1;" vertex="1" parent="1">
          <mxGeometry x="400" y="310" width="170" height="70" as="geometry" />
        </mxCell>
        <mxCell id="pM1Eg_i1Femi7RNcpdk1-39" value="" style="line;strokeWidth=1;fillColor=none;align=left;verticalAlign=middle;spacingTop=-1;spacingLeft=3;spacingRight=3;rotatable=0;labelPosition=right;points=[];portConstraint=eastwest;strokeColor=inherit;" vertex="1" parent="pM1Eg_i1Femi7RNcpdk1-37">
          <mxGeometry y="26" width="170" height="8" as="geometry" />
        </mxCell>
        <mxCell id="pM1Eg_i1Femi7RNcpdk1-40" value="+ DisplayQuestion(): void" style="text;strokeColor=none;fillColor=none;align=left;verticalAlign=top;spacingLeft=4;spacingRight=4;overflow=hidden;rotatable=0;points=[[0,0.5],[1,0.5]];portConstraint=eastwest;whiteSpace=wrap;html=1;" vertex="1" parent="pM1Eg_i1Femi7RNcpdk1-37">
          <mxGeometry y="34" width="170" height="36" as="geometry" />
        </mxCell>
        <mxCell id="pM1Eg_i1Femi7RNcpdk1-41" value="" style="endArrow=block;endSize=16;endFill=0;html=1;rounded=0;" edge="1" parent="1" source="pM1Eg_i1Femi7RNcpdk1-34" target="pM1Eg_i1Femi7RNcpdk1-40">
          <mxGeometry width="160" relative="1" as="geometry">
            <mxPoint x="280" y="355" as="sourcePoint" />
            <mxPoint x="400" y="354.8" as="targetPoint" />
          </mxGeometry>
        </mxCell>
        <mxCell id="pM1Eg_i1Femi7RNcpdk1-48" value="TorFQuestion" style="swimlane;fontStyle=1;align=center;verticalAlign=top;childLayout=stackLayout;horizontal=1;startSize=26;horizontalStack=0;resizeParent=1;resizeParentMax=0;resizeLast=0;collapsible=1;marginBottom=0;whiteSpace=wrap;html=1;" vertex="1" parent="1">
          <mxGeometry x="400" y="390" width="170" height="70" as="geometry" />
        </mxCell>
        <mxCell id="pM1Eg_i1Femi7RNcpdk1-49" value="" style="line;strokeWidth=1;fillColor=none;align=left;verticalAlign=middle;spacingTop=-1;spacingLeft=3;spacingRight=3;rotatable=0;labelPosition=right;points=[];portConstraint=eastwest;strokeColor=inherit;" vertex="1" parent="pM1Eg_i1Femi7RNcpdk1-48">
          <mxGeometry y="26" width="170" height="8" as="geometry" />
        </mxCell>
        <mxCell id="pM1Eg_i1Femi7RNcpdk1-50" value="+ DisplayQuestion(): void" style="text;strokeColor=none;fillColor=none;align=left;verticalAlign=top;spacingLeft=4;spacingRight=4;overflow=hidden;rotatable=0;points=[[0,0.5],[1,0.5]];portConstraint=eastwest;whiteSpace=wrap;html=1;" vertex="1" parent="pM1Eg_i1Femi7RNcpdk1-48">
          <mxGeometry y="34" width="170" height="36" as="geometry" />
        </mxCell>
        <mxCell id="pM1Eg_i1Femi7RNcpdk1-52" value="" style="endArrow=block;endSize=16;endFill=0;html=1;rounded=0;" edge="1" parent="1" source="pM1Eg_i1Femi7RNcpdk1-36">
          <mxGeometry width="160" relative="1" as="geometry">
            <mxPoint x="300" y="379" as="sourcePoint" />
            <mxPoint x="400" y="420" as="targetPoint" />
          </mxGeometry>
        </mxCell>
        <mxCell id="pM1Eg_i1Femi7RNcpdk1-53" value="Exam" style="swimlane;fontStyle=1;align=center;verticalAlign=top;childLayout=stackLayout;horizontal=1;startSize=26;horizontalStack=0;resizeParent=1;resizeParentMax=0;resizeLast=0;collapsible=1;marginBottom=0;whiteSpace=wrap;html=1;" vertex="1" parent="1">
          <mxGeometry x="110" y="480" width="180" height="114" as="geometry" />
        </mxCell>
        <mxCell id="pM1Eg_i1Femi7RNcpdk1-54" value="+ Time: DateTime&lt;div&gt;+ NumberOfQuestion: int&lt;/div&gt;&lt;div&gt;+ Quetions: Question[]&lt;/div&gt;" style="text;strokeColor=none;fillColor=none;align=left;verticalAlign=top;spacingLeft=4;spacingRight=4;overflow=hidden;rotatable=0;points=[[0,0.5],[1,0.5]];portConstraint=eastwest;whiteSpace=wrap;html=1;" vertex="1" parent="pM1Eg_i1Femi7RNcpdk1-53">
          <mxGeometry y="26" width="180" height="54" as="geometry" />
        </mxCell>
        <mxCell id="pM1Eg_i1Femi7RNcpdk1-55" value="" style="line;strokeWidth=1;fillColor=none;align=left;verticalAlign=middle;spacingTop=-1;spacingLeft=3;spacingRight=3;rotatable=0;labelPosition=right;points=[];portConstraint=eastwest;strokeColor=inherit;" vertex="1" parent="pM1Eg_i1Femi7RNcpdk1-53">
          <mxGeometry y="80" width="180" height="8" as="geometry" />
        </mxCell>
        <mxCell id="pM1Eg_i1Femi7RNcpdk1-56" value="+ DisplayExam(): void" style="text;strokeColor=none;fillColor=none;align=left;verticalAlign=top;spacingLeft=4;spacingRight=4;overflow=hidden;rotatable=0;points=[[0,0.5],[1,0.5]];portConstraint=eastwest;whiteSpace=wrap;html=1;" vertex="1" parent="pM1Eg_i1Femi7RNcpdk1-53">
          <mxGeometry y="88" width="180" height="26" as="geometry" />
        </mxCell>
        <mxCell id="pM1Eg_i1Femi7RNcpdk1-57" value="Answer" style="swimlane;fontStyle=1;align=center;verticalAlign=top;childLayout=stackLayout;horizontal=1;startSize=26;horizontalStack=0;resizeParent=1;resizeParentMax=0;resizeLast=0;collapsible=1;marginBottom=0;whiteSpace=wrap;html=1;" vertex="1" parent="1">
          <mxGeometry x="-170" y="380" width="180" height="78" as="geometry" />
        </mxCell>
        <mxCell id="pM1Eg_i1Femi7RNcpdk1-58" value="+ Id: int&lt;div&gt;+ Text: string&lt;/div&gt;" style="text;strokeColor=none;fillColor=none;align=left;verticalAlign=top;spacingLeft=4;spacingRight=4;overflow=hidden;rotatable=0;points=[[0,0.5],[1,0.5]];portConstraint=eastwest;whiteSpace=wrap;html=1;" vertex="1" parent="pM1Eg_i1Femi7RNcpdk1-57">
          <mxGeometry y="26" width="180" height="44" as="geometry" />
        </mxCell>
        <mxCell id="pM1Eg_i1Femi7RNcpdk1-59" value="" style="line;strokeWidth=1;fillColor=none;align=left;verticalAlign=middle;spacingTop=-1;spacingLeft=3;spacingRight=3;rotatable=0;labelPosition=right;points=[];portConstraint=eastwest;strokeColor=inherit;" vertex="1" parent="pM1Eg_i1Femi7RNcpdk1-57">
          <mxGeometry y="70" width="180" height="8" as="geometry" />
        </mxCell>
        <mxCell id="pM1Eg_i1Femi7RNcpdk1-61" value="" style="endArrow=open;endFill=1;endSize=12;html=1;rounded=0;" edge="1" parent="1" source="pM1Eg_i1Femi7RNcpdk1-36" target="pM1Eg_i1Femi7RNcpdk1-57">
          <mxGeometry width="160" relative="1" as="geometry">
            <mxPoint x="-30" y="460" as="sourcePoint" />
            <mxPoint x="130" y="460" as="targetPoint" />
          </mxGeometry>
        </mxCell>
        <mxCell id="pM1Eg_i1Femi7RNcpdk1-66" value="PracticalExam" style="swimlane;fontStyle=1;align=center;verticalAlign=top;childLayout=stackLayout;horizontal=1;startSize=26;horizontalStack=0;resizeParent=1;resizeParentMax=0;resizeLast=0;collapsible=1;marginBottom=0;whiteSpace=wrap;html=1;" vertex="1" parent="1">
          <mxGeometry x="-150" y="546" width="170" height="70" as="geometry" />
        </mxCell>
        <mxCell id="pM1Eg_i1Femi7RNcpdk1-67" value="" style="line;strokeWidth=1;fillColor=none;align=left;verticalAlign=middle;spacingTop=-1;spacingLeft=3;spacingRight=3;rotatable=0;labelPosition=right;points=[];portConstraint=eastwest;strokeColor=inherit;" vertex="1" parent="pM1Eg_i1Femi7RNcpdk1-66">
          <mxGeometry y="26" width="170" height="8" as="geometry" />
        </mxCell>
        <mxCell id="pM1Eg_i1Femi7RNcpdk1-68" value="+ DisplayExam(): void" style="text;strokeColor=none;fillColor=none;align=left;verticalAlign=top;spacingLeft=4;spacingRight=4;overflow=hidden;rotatable=0;points=[[0,0.5],[1,0.5]];portConstraint=eastwest;whiteSpace=wrap;html=1;" vertex="1" parent="pM1Eg_i1Femi7RNcpdk1-66">
          <mxGeometry y="34" width="170" height="36" as="geometry" />
        </mxCell>
        <mxCell id="pM1Eg_i1Femi7RNcpdk1-72" value="FinalExam" style="swimlane;fontStyle=1;align=center;verticalAlign=top;childLayout=stackLayout;horizontal=1;startSize=26;horizontalStack=0;resizeParent=1;resizeParentMax=0;resizeLast=0;collapsible=1;marginBottom=0;whiteSpace=wrap;html=1;" vertex="1" parent="1">
          <mxGeometry x="110" y="670" width="180" height="84" as="geometry" />
        </mxCell>
        <mxCell id="pM1Eg_i1Femi7RNcpdk1-73" value="+ Grade: int&lt;div&gt;&lt;br&gt;&lt;/div&gt;" style="text;strokeColor=none;fillColor=none;align=left;verticalAlign=top;spacingLeft=4;spacingRight=4;overflow=hidden;rotatable=0;points=[[0,0.5],[1,0.5]];portConstraint=eastwest;whiteSpace=wrap;html=1;" vertex="1" parent="pM1Eg_i1Femi7RNcpdk1-72">
          <mxGeometry y="26" width="180" height="24" as="geometry" />
        </mxCell>
        <mxCell id="pM1Eg_i1Femi7RNcpdk1-74" value="" style="line;strokeWidth=1;fillColor=none;align=left;verticalAlign=middle;spacingTop=-1;spacingLeft=3;spacingRight=3;rotatable=0;labelPosition=right;points=[];portConstraint=eastwest;strokeColor=inherit;" vertex="1" parent="pM1Eg_i1Femi7RNcpdk1-72">
          <mxGeometry y="50" width="180" height="8" as="geometry" />
        </mxCell>
        <mxCell id="pM1Eg_i1Femi7RNcpdk1-75" value="+ DisplayExam(): void" style="text;strokeColor=none;fillColor=none;align=left;verticalAlign=top;spacingLeft=4;spacingRight=4;overflow=hidden;rotatable=0;points=[[0,0.5],[1,0.5]];portConstraint=eastwest;whiteSpace=wrap;html=1;" vertex="1" parent="pM1Eg_i1Femi7RNcpdk1-72">
          <mxGeometry y="58" width="180" height="26" as="geometry" />
        </mxCell>
        <mxCell id="pM1Eg_i1Femi7RNcpdk1-76" value="" style="endArrow=block;endSize=16;endFill=0;html=1;rounded=0;" edge="1" parent="1" source="pM1Eg_i1Femi7RNcpdk1-56" target="pM1Eg_i1Femi7RNcpdk1-72">
          <mxGeometry width="160" relative="1" as="geometry">
            <mxPoint x="290" y="369" as="sourcePoint" />
            <mxPoint x="410" y="371" as="targetPoint" />
          </mxGeometry>
        </mxCell>
        <mxCell id="pM1Eg_i1Femi7RNcpdk1-77" value="" style="endArrow=block;endSize=16;endFill=0;html=1;rounded=0;" edge="1" parent="1" source="pM1Eg_i1Femi7RNcpdk1-56" target="pM1Eg_i1Femi7RNcpdk1-66">
          <mxGeometry width="160" relative="1" as="geometry">
            <mxPoint x="210" y="604" as="sourcePoint" />
            <mxPoint x="210" y="680" as="targetPoint" />
          </mxGeometry>
        </mxCell>
        <mxCell id="pM1Eg_i1Femi7RNcpdk1-78" value="Subject" style="swimlane;fontStyle=1;align=center;verticalAlign=top;childLayout=stackLayout;horizontal=1;startSize=26;horizontalStack=0;resizeParent=1;resizeParentMax=0;resizeLast=0;collapsible=1;marginBottom=0;whiteSpace=wrap;html=1;" vertex="1" parent="1">
          <mxGeometry x="425" y="480" width="160" height="124" as="geometry" />
        </mxCell>
        <mxCell id="pM1Eg_i1Femi7RNcpdk1-79" value="+ Id: int&lt;div&gt;+ Name: string&lt;/div&gt;&lt;div&gt;+ SubjectExam: Exam&lt;br&gt;&lt;div&gt;&lt;br&gt;&lt;/div&gt;&lt;/div&gt;" style="text;strokeColor=none;fillColor=none;align=left;verticalAlign=top;spacingLeft=4;spacingRight=4;overflow=hidden;rotatable=0;points=[[0,0.5],[1,0.5]];portConstraint=eastwest;whiteSpace=wrap;html=1;" vertex="1" parent="pM1Eg_i1Femi7RNcpdk1-78">
          <mxGeometry y="26" width="160" height="64" as="geometry" />
        </mxCell>
        <mxCell id="pM1Eg_i1Femi7RNcpdk1-80" value="" style="line;strokeWidth=1;fillColor=none;align=left;verticalAlign=middle;spacingTop=-1;spacingLeft=3;spacingRight=3;rotatable=0;labelPosition=right;points=[];portConstraint=eastwest;strokeColor=inherit;" vertex="1" parent="pM1Eg_i1Femi7RNcpdk1-78">
          <mxGeometry y="90" width="160" height="8" as="geometry" />
        </mxCell>
        <mxCell id="pM1Eg_i1Femi7RNcpdk1-81" value="+ CreateExam(): void" style="text;strokeColor=none;fillColor=none;align=left;verticalAlign=top;spacingLeft=4;spacingRight=4;overflow=hidden;rotatable=0;points=[[0,0.5],[1,0.5]];portConstraint=eastwest;whiteSpace=wrap;html=1;" vertex="1" parent="pM1Eg_i1Femi7RNcpdk1-78">
          <mxGeometry y="98" width="160" height="26" as="geometry" />
        </mxCell>
        <mxCell id="pM1Eg_i1Femi7RNcpdk1-82" value="" style="endArrow=open;endFill=1;endSize=12;html=1;rounded=0;" edge="1" parent="1" source="pM1Eg_i1Femi7RNcpdk1-54" target="pM1Eg_i1Femi7RNcpdk1-79">
          <mxGeometry width="160" relative="1" as="geometry">
            <mxPoint x="120" y="426" as="sourcePoint" />
            <mxPoint x="20" y="427" as="targetPoint" />
          </mxGeometry>
        </mxCell>
      </root>
    </mxGraphModel>
  </diagram>
</mxfile>
